<?xml version="1.0" standalone="no"?>
<!DOCTYPE svg PUBLIC "-//W3C//DTD SVG 20010904//EN"
 "http://www.w3.org/TR/2001/REC-SVG-20010904/DTD/svg10.dtd">
<svg version="1.0" xmlns="http://www.w3.org/2000/svg"
 width="450.000000pt" height="198.000000pt" viewBox="0 0 450.000000 198.000000"
 preserveAspectRatio="xMidYMid meet">
<metadata>
Created by potrace 1.16, written by Peter Selinger 2001-2019
</metadata>
<g transform="translate(0.000000,198.000000) scale(0.100000,-0.100000)"
fill="#000000" stroke="none">
<path d="M2646 1946 c-49 -18 -103 -70 -127 -121 -24 -52 -24 -138 0 -191 26
-57 71 -88 181 -124 52 -17 105 -38 118 -46 55 -36 49 -129 -11 -161 -53 -28
-117 -21 -192 22 -61 34 -68 35 -88 22 -13 -8 -31 -31 -42 -52 l-20 -37 25
-20 c57 -47 131 -73 223 -76 102 -5 157 11 214 61 76 67 105 195 64 280 -28
58 -72 87 -196 131 -105 37 -145 68 -145 110 0 57 82 106 146 87 16 -5 51 -19
77 -32 56 -27 71 -22 104 37 26 46 22 54 -51 92 -42 21 -67 26 -146 29 -65 2
-107 -1 -134 -11z"/>
<path d="M910 1561 l0 -391 193 0 c149 0 206 4 248 16 116 35 207 125 245 241
26 83 16 240 -19 315 -36 75 -97 134 -177 172 l-65 31 -212 3 -213 3 0 -390z
m401 244 c47 -24 87 -63 112 -110 30 -55 32 -212 3 -265 -52 -97 -112 -130
-253 -138 l-103 -5 0 273 0 273 103 -5 c69 -4 115 -11 138 -23z"/>
<path d="M1710 1560 l0 -390 70 0 70 0 2 258 3 258 203 -258 203 -258 64 0 65
0 0 390 0 390 -75 0 -75 0 -2 -254 -3 -255 -199 255 -200 254 -63 0 -63 0 0
-390z"/>
<path d="M3370 1570 l0 -300 40 0 c29 0 40 4 40 15 0 12 6 11 33 -5 89 -55
215 1 248 109 18 61 8 194 -17 228 -55 74 -133 92 -217 49 l-47 -23 0 113 0
114 -40 0 -40 0 0 -300z m251 24 c22 -23 24 -34 24 -114 0 -84 -1 -90 -29
-119 -37 -39 -98 -43 -140 -10 -25 19 -26 25 -26 113 0 59 5 98 13 108 43 54
118 64 158 22z"/>
<path d="M3764 1648 c7 -18 45 -106 84 -196 l71 -163 -35 -76 c-19 -42 -34
-80 -34 -85 0 -5 19 -8 42 -6 l43 3 117 275 116 275 -40 3 c-22 2 -44 0 -48
-5 -4 -4 -30 -66 -59 -138 -29 -71 -54 -131 -56 -133 -1 -1 -28 61 -60 138
l-58 140 -48 0 -49 0 14 -32z"/>
<path d="M4106 978 c-9 -12 -16 -34 -16 -48 0 -43 26 -70 69 -70 46 0 74 27
74 70 0 43 -28 70 -74 70 -28 0 -42 -6 -53 -22z"/>
<path d="M4376 963 c-3 -21 -24 -191 -46 -378 -22 -187 -42 -352 -45 -367 -4
-28 -4 -28 50 -28 49 0 55 3 59 22 3 13 24 178 46 368 22 190 43 362 46 383
l6 37 -55 0 -55 0 -6 -37z"/>
<path d="M235 732 c-77 -37 -156 -121 -185 -198 -45 -122 -35 -246 25 -309 30
-32 37 -35 90 -35 70 0 113 19 161 73 l37 40 -5 -40 c-8 -56 5 -73 52 -73 46
0 39 -27 75 280 14 118 28 227 31 242 5 24 1 28 -33 37 -21 6 -72 11 -113 11
-62 0 -86 -5 -135 -28z m165 -64 c0 -7 -7 -56 -14 -109 -30 -212 -165 -357
-233 -252 -13 19 -18 46 -17 94 1 116 73 232 166 266 45 16 98 16 98 1z"/>
<path d="M814 738 c-16 -12 -34 -29 -41 -38 -45 -60 -43 -59 -40 -5 l2 50 -47
3 c-27 2 -48 -1 -48 -5 0 -4 -13 -118 -30 -253 -16 -135 -30 -255 -30 -267 0
-21 5 -23 54 -23 l53 0 13 128 c19 187 61 290 130 324 25 12 40 14 62 6 16 -6
31 -8 33 -6 3 2 6 27 7 54 l3 49 -46 3 c-35 2 -52 -2 -75 -20z"/>
<path d="M1135 732 c-77 -37 -156 -121 -185 -198 -45 -122 -35 -246 25 -309
30 -32 37 -35 90 -35 70 0 113 19 161 73 l37 40 -5 -40 c-8 -56 5 -73 52 -73
46 0 39 -27 75 280 14 118 28 227 31 242 5 24 1 28 -33 37 -21 6 -72 11 -113
11 -62 0 -86 -5 -135 -28z m165 -64 c0 -7 -7 -56 -14 -109 -30 -212 -165 -357
-233 -252 -13 19 -18 46 -17 94 1 116 73 232 166 266 45 16 98 16 98 1z"/>
<path d="M1755 741 c-22 -10 -59 -39 -83 -64 l-42 -47 2 58 3 57 -47 3 c-27 2
-48 0 -48 -3 0 -11 -80 -681 -85 -707 -4 -28 -4 -28 49 -28 62 0 60 -3 71 115
10 108 10 108 48 85 43 -27 134 -27 186 -1 117 60 202 260 172 408 -6 31 -18
67 -27 80 -39 60 -123 79 -199 44z m88 -89 c65 -56 26 -271 -63 -346 -41 -34
-73 -41 -120 -27 -58 17 -64 29 -52 115 16 123 85 241 156 271 32 14 51 11 79
-13z"/>
<path d="M2809 711 l-48 -50 -3 42 -3 42 -45 3 -46 3 -28 -238 c-15 -131 -30
-255 -33 -275 l-6 -38 57 0 c31 0 56 3 56 8 1 61 35 276 52 319 37 100 101
150 165 129 19 -6 22 -2 31 41 6 26 8 51 6 55 -3 4 -28 8 -56 8 -49 0 -54 -3
-99 -49z"/>
<path d="M3153 730 c-171 -85 -260 -317 -182 -472 23 -46 63 -68 124 -68 59 0
102 19 145 64 l35 37 5 -48 5 -48 42 -3 c51 -4 44 -26 78 258 14 118 28 231
31 251 5 34 3 37 -27 48 -18 6 -69 11 -114 11 -71 0 -90 -4 -142 -30z m162
-117 c-15 -152 -66 -272 -135 -321 -40 -27 -61 -28 -90 -4 -42 34 -44 167 -3
247 44 84 128 145 201 145 l34 0 -7 -67z"/>
<path d="M2090 743 c0 -5 -9 -82 -20 -173 -24 -202 -25 -271 -4 -316 21 -44
60 -64 124 -64 60 0 100 18 153 68 l37 36 0 -47 0 -47 48 0 48 0 28 243 c16
133 31 257 33 275 l6 32 -56 0 c-64 0 -58 13 -78 -175 -14 -128 -39 -193 -100
-253 -63 -64 -130 -65 -146 -4 -5 22 11 214 34 390 l6 42 -57 0 c-31 0 -56 -3
-56 -7z"/>
<path d="M3571 503 c38 -137 68 -256 69 -265 0 -10 -25 -63 -55 -118 -30 -55
-55 -103 -55 -105 0 -3 24 -5 54 -5 l54 0 172 338 c95 185 181 352 192 370
l20 32 -59 0 -58 0 -95 -190 -95 -191 -41 163 c-22 90 -44 175 -47 191 -7 26
-10 27 -66 27 l-58 0 68 -247z"/>
<path d="M4086 713 c-3 -21 -17 -135 -31 -253 -14 -118 -27 -225 -29 -238 -3
-22 -1 -23 53 -20 l56 3 27 225 c14 124 29 246 32 273 l7 47 -55 0 -54 0 -6
-37z"/>
</g>
</svg>
